<?xml version="1.0" encoding="UTF-8" standalone="no"?>
<!-- Created with Inkscape (http://www.inkscape.org/) -->

<svg
   width="512"
   height="512"
   viewBox="0 0 512 512"
   version="1.1"
   id="svg1"
   inkscape:version="1.3 (0e150ed6c4, 2023-07-21)"
   sodipodi:docname="statego-logo-v2-med-dark.svg"
   inkscape:export-filename="statego-logo-v2-1000pxpx.png"
   inkscape:export-xdpi="187.5"
   inkscape:export-ydpi="187.5"
   xmlns:inkscape="http://www.inkscape.org/namespaces/inkscape"
   xmlns:sodipodi="http://sodipodi.sourceforge.net/DTD/sodipodi-0.dtd"
   xmlns="http://www.w3.org/2000/svg"
   xmlns:svg="http://www.w3.org/2000/svg">
  <sodipodi:namedview
     id="namedview1"
     pagecolor="#ffffff"
     bordercolor="#000000"
     borderopacity="0.25"
     inkscape:showpageshadow="2"
     inkscape:pageopacity="0.0"
     inkscape:pagecheckerboard="0"
     inkscape:deskcolor="#d1d1d1"
     inkscape:document-units="px"
     inkscape:zoom="0.99857044"
     inkscape:cx="304.93592"
     inkscape:cy="245.35074"
     inkscape:window-width="1865"
     inkscape:window-height="1060"
     inkscape:window-x="0"
     inkscape:window-y="0"
     inkscape:window-maximized="1"
     inkscape:current-layer="layer1"
     inkscape:export-bgcolor="#ffffff00" />
  <defs
     id="defs1" />
  <g
     inkscape:label="Layer 1"
     inkscape:groupmode="layer"
     id="layer1">
    <path
       d="m 255.99999,15.141862 c -11.46898,-3.4e-5 -22.92452,0.819231 -34.27679,2.45136 -11.35267,1.6321 -22.57548,4.073309 -33.58033,7.304468 -11.0047,3.231641 -21.76568,7.245665 -32.19846,12.010565 -10.43305,4.764182 -20.51355,10.26811 -30.16239,16.468586 -9.64854,6.200661 -18.84283,13.083333 -27.510728,20.594002 -8.668115,7.510938 -16.789511,15.632334 -24.300449,24.300449 -7.510669,8.667898 -14.393341,17.862188 -20.594002,27.510728 -6.200476,9.64884 -11.704404,19.72934 -16.468586,30.16239 -4.7649,10.43278 -8.778924,21.19376 -12.010565,32.19846 -3.231159,11.00485 -5.672368,22.22766 -7.304468,33.58033 -1.632129,11.35227 -2.451394,22.80781 -2.45136,34.27679 -3.4e-5,11.46898 0.819231,22.92453 2.45136,34.27679 1.6321,11.35267 4.073309,22.57548 7.304468,33.58033 3.231641,11.0047 7.245665,21.76569 12.010565,32.19847 4.764182,10.43304 10.26811,20.51355 16.468586,30.16239 6.200661,9.64853 13.083333,18.84283 20.594002,27.51073 7.510938,8.66812 15.632334,16.7895 24.300449,24.30045 8.667898,7.51066 17.862188,14.39334 27.510728,20.594 9.64884,6.20048 19.72934,11.7044 30.16239,16.46858 10.43278,4.76491 21.19376,8.77892 32.19846,12.01056 11.00485,3.23117 22.22766,5.67237 33.58033,7.30448 11.35227,1.63214 22.80781,2.45138 34.27679,2.45136 11.46898,2e-5 22.92453,-0.81922 34.27679,-2.45136 11.35267,-1.63211 22.57548,-4.07331 33.58033,-7.30448 11.0047,-3.23164 21.76569,-7.24565 32.19847,-12.01056 10.43304,-4.76418 20.51355,-10.2681 30.16239,-16.46858 9.64853,-6.20066 18.84283,-13.08334 27.51073,-20.594 8.66812,-7.51095 16.7895,-15.63233 24.30045,-24.30045 7.51066,-8.6679 14.39334,-17.8622 20.594,-27.51073 6.20048,-9.64884 11.7044,-19.72935 16.46858,-30.16239 4.76491,-10.43278 8.77892,-21.19377 12.01056,-32.19847 3.23117,-11.00485 5.67237,-22.22766 7.30448,-33.58033 1.63214,-11.35226 2.45138,-22.80781 2.45136,-34.27679 -9e-5,-3.94084 -0.0969,-7.88151 -0.29034,-11.81762 -0.19322,-3.93639 -0.48306,-7.86788 -0.8692,-11.79004 -0.38659,-3.92215 -0.86944,-7.83464 -1.44802,-11.73309 -0.57835,-3.89867 -1.25239,-7.78297 -2.02136,-11.64856 -0.76854,-3.86533 -1.63192,-7.71166 -2.58918,-11.53464 -0.95771,-3.82278 -2.00921,-7.62191 -3.15333,-11.39311 -1.144,-3.77163 -2.38057,-7.51498 -3.70827,-11.22591 -1.32753,-3.71054 -2.74608,-7.38835 -4.25406,-11.02929 -1.50814,-3.64145 -3.10561,-7.24571 -4.79063,-10.80877 -1.68534,-3.56246 -3.45806,-7.08339 -5.31619,-10.55886 -1.85783,-3.4754 -3.8009,-6.90501 -5.82703,-10.28506 -2.02619,-3.38086 -4.13533,-6.71185 -6.32501,-9.9892 -2.18936,-3.27639 -4.45902,-6.49891 -6.80649,-9.66396 -2.3477,-3.16569 -4.77301,-6.27362 -7.27323,-9.32031 -2.50013,-3.04689 -5.07496,-6.03226 -7.7216,-8.952792 -2.64665,-2.919952 -5.36487,-5.774812 -8.1516,-8.561387 -2.78658,-2.786733 -5.64143,-5.504949 -8.56139,-8.151601 -2.92052,-2.646637 -5.9059,-5.221465 -8.95279,-7.721603 -3.04669,-2.500212 -6.15462,-4.925526 -9.32031,-7.273226 -3.16505,-2.347457 -6.38755,-4.617129 -9.66395,-6.806477 -3.27735,-2.189683 -6.60835,-4.298811 -9.9892,-6.325025 -3.38005,-2.026123 -6.80967,-3.969191 -10.28507,-5.827035 -3.47546,-1.858114 -6.99639,-3.630835 -10.55885,-5.316182 -3.56305,-1.685015 -7.16733,-3.282487 -10.80877,-4.790628 -3.64094,-1.507981 -7.31875,-2.926526 -11.0293,-4.254048 -3.71092,-1.32771 -7.45428,-2.564265 -11.2259,-3.708279 -3.77121,-1.144121 -7.57034,-2.195621 -11.39312,-3.153325 -3.82299,-0.957266 -7.6693,-1.820649 -11.53464,-2.589181 -3.86558,-0.768969 -7.74989,-1.443008 -11.64854,-2.021363 -3.89845,-0.578579 -7.81095,-1.061437 -11.7331,-1.44803 -3.92217,-0.386133 -7.85366,-0.675971 -11.79005,-0.869185 -3.9361,-0.19344 -7.87678,-0.290256 -11.81762,-0.290341 z m 13.44575,21.084642 c 0.42301,-0.0154 0.90093,0.02868 1.34878,0.04043 2.33769,0.146502 4.67313,0.330298 7.00493,0.551281 0.40926,0.03132 0.81846,0.06378 1.22754,0.09739 3.82351,0.401791 7.63628,0.903663 11.43355,1.504995 3.79751,0.601634 7.57903,1.302663 11.33984,2.102217 3.761,0.799303 7.50085,1.697037 11.21489,2.692086 3.71403,0.994801 7.40179,2.086789 11.05868,3.274606 3.6566,1.188124 7.28185,2.471915 10.87125,3.849776 3.58987,1.377998 7.14343,2.849914 10.65625,4.413919 3.512,1.563903 6.98283,3.219656 10.40818,4.965199 3.42606,1.745697 6.8062,3.580996 10.13621,5.503619 3.32956,1.922277 6.6086,3.931607 9.83301,6.025496 3.225,2.094142 6.39494,4.272603 9.5059,6.532673 3.11046,2.260161 6.16154,4.601625 9.14943,7.021477 1.58425,1.315098 3.15015,2.652487 4.69691,4.011484 1.63902,2.033417 3.08307,4.113286 4.29263,6.249683 1.25659,2.219418 2.28647,4.49447 3.10371,6.821165 0.81725,2.32672 1.42228,4.70534 1.82474,7.13542 0.40248,2.43008 0.60331,4.91092 0.61559,7.44045 0.0123,2.52953 -0.16485,5.10757 -0.5182,7.73263 -0.35332,2.62505 -0.88413,5.29894 -1.57849,8.01561 -0.69437,2.71667 -1.55263,5.47771 -2.56345,8.28208 -1.01084,2.80436 -2.17403,5.65121 -3.47675,8.53934 -1.30273,2.88813 -2.74466,5.81757 -4.31468,8.78557 -1.57004,2.96798 -3.2682,5.97503 -5.08097,9.01895 -1.81277,3.04391 -3.74098,6.12537 -5.77192,9.2413 -2.03092,3.11593 -4.16483,6.26676 -6.38934,9.45078 -4.449,6.36804 -9.26108,12.86905 -14.33695,19.48592 -5.07591,6.6169 -10.41666,13.3517 -15.92284,20.18606 -4.11394,5.10632 -8.01454,10.30421 -11.70552,15.55898 -3.69096,5.25477 -7.17398,10.56858 -10.44859,15.90443 -3.27463,5.33588 -6.34149,10.69447 -9.20639,16.04411 -2.50634,4.68008 -4.79272,9.34367 -6.99023,13.98598 0.0343,0.0148 0.0743,0.0331 0.10841,0.0478 7.74249,3.35778 14.98122,6.33223 21.45217,8.76537 3.23547,1.21658 6.27926,2.29808 9.09797,3.22499 2.81868,0.92692 5.41316,1.69873 7.74915,2.297 1.75312,0.44901 4.14342,1.00058 6.17251,1.49948 0.41362,-0.6027 0.76968,-1.1897 1.19443,-1.79532 1.40441,-2.00244 4.12217,-5.3748 7.8282,-9.59595 3.70601,-4.22118 8.40141,-9.29177 13.75996,-14.69164 2.67927,-2.69994 5.52454,-5.48247 8.49522,-8.28207 2.97071,-2.79961 6.06767,-5.6157 9.24865,-8.38499 3.181,-2.76924 6.44568,-5.4912 9.75583,-8.10013 3.31015,-2.60892 6.66596,-5.10534 10.02412,-7.42392 3.35816,-2.31858 6.7193,-4.45986 10.04434,-6.3581 1.66251,-0.9491 3.31697,-1.83752 4.956,-2.65717 1.63903,-0.81965 3.26425,-1.57161 4.86965,-2.24555 1.60539,-0.67394 3.19041,-1.2705 4.75204,-1.78248 1.56162,-0.51197 3.09917,-0.93968 4.60686,-1.27346 1.50769,-0.33376 2.98684,-0.57367 4.43046,-0.71298 1.44364,-0.13929 2.85339,-0.17799 4.22281,-0.10658 1.36942,0.0714 2.69884,0.25291 3.98392,0.55128 1.28509,0.29837 2.52504,0.71348 3.71562,1.25508 1.19061,0.54159 2.33198,1.20927 3.41795,2.01034 1.08597,0.80106 2.1178,1.73657 3.08901,2.81338 0.97121,1.07676 1.88256,2.29541 2.72883,3.66417 0.8463,1.36874 1.6262,2.88763 2.33745,4.5646 0.71122,1.67697 1.35241,3.5132 1.91844,5.51463 0.56604,2.00144 1.05755,4.16849 1.46824,6.51063 -7e-5,11.53975 -0.90704,23.06289 -2.7123,34.46055 -0.46615,2.07492 -0.96239,4.1432 -1.48846,6.20374 -0.6953,3.211 -1.46244,6.40641 -2.30067,9.5831 -0.4061,0.80352 -0.82634,1.59728 -1.31573,2.33558 -0.60368,0.91075 -1.27005,1.77232 -1.99379,2.58734 -0.72374,0.81503 -1.50466,1.58298 -2.3411,2.3062 -0.83644,0.72323 -1.72826,1.40254 -2.67004,2.0379 -0.94177,0.63535 -1.93348,1.2274 -2.97323,1.77879 -2.07951,1.10279 -4.34798,2.04133 -6.77524,2.83176 -2.42727,0.7904 -5.01463,1.43295 -7.73079,1.94234 -2.71617,0.50938 -5.56189,0.88516 -8.50811,1.14483 -2.9462,0.25966 -5.99345,0.40341 -9.11082,0.4447 -3.11738,0.0412 -6.30565,-0.0195 -9.5353,-0.16539 -3.22969,-0.14577 -6.50029,-0.37657 -9.78341,-0.67807 -3.2831,-0.30152 -6.57921,-0.67299 -9.85689,-1.0989 -6.55537,-0.85182 -13.0427,-1.92198 -19.22317,-3.08348 -6.18044,-1.16151 -12.05461,-2.41606 -17.38922,-3.63663 -4.29449,-0.98257 -7.91855,-1.8913 -11.38944,-2.76559 -0.84065,-0.21174 -1.97487,-0.47009 -2.75825,-0.67073 -2.33602,-0.59828 -4.93042,-1.37006 -7.74916,-2.297 -2.81873,-0.92692 -5.86245,-2.00838 -9.09797,-3.22499 -6.47104,-2.43317 -13.70955,-5.40755 -21.45216,-8.76535 -0.52313,-0.22687 -1.12619,-0.51758 -1.65384,-0.7479 -6.01477,-2.62559 -12.38098,-5.52871 -18.85196,-8.52648 -1.10493,4.62003 -2.22189,9.24471 -3.46571,13.96394 -1.5871,6.02161 -3.28585,12.13602 -5.08832,18.37602 -0.3713,1.2854 -0.85842,2.74091 -1.23855,4.03719 2.7593,1.64731 5.5008,3.26341 8.31515,5.01483 2.30953,1.43727 4.65232,2.98581 6.98289,4.48559 2.02067,1.30034 4.02853,2.54583 6.05489,3.88836 4.3635,2.89096 8.72961,5.87503 13.05064,8.92892 4.32104,3.05388 8.59782,6.17752 12.78236,9.34971 1.79184,1.35831 3.48269,2.75309 5.23718,4.12726 2.34286,1.83499 4.73297,3.65501 6.99391,5.51095 3.95403,3.2458 7.76909,6.51779 11.39865,9.7926 3.62954,3.2748 7.074,6.55358 10.28504,9.81278 3.21107,3.25919 6.18993,6.49991 8.88849,9.69885 2.69856,3.19896 5.1187,6.35672 7.21073,9.4508 1.04603,1.54704 2.01011,3.07787 2.88688,4.59032 0.87678,1.51245 1.66556,3.00597 2.36133,4.47825 0.69575,1.47227 1.29784,2.92307 1.80085,4.3496 0.503,1.42653 0.90695,2.82922 1.20546,4.20443 0.29851,1.3752 0.49109,2.72441 0.57334,4.04273 0.0821,1.3183 0.0539,2.60681 -0.0919,3.86263 -0.14576,1.25581 -0.40831,2.47827 -0.79383,3.66601 -0.32585,1.00389 -0.78881,1.96837 -1.29369,2.91997 -1.23401,0.77304 -2.4757,1.53386 -3.7248,2.28229 -0.21845,0.13391 -0.43712,0.26744 -0.65602,0.4006 -0.14223,0.0455 -0.26909,0.12043 -0.41346,0.1617 -0.83816,0.2396 -1.71316,0.40628 -2.61675,0.5035 -0.9036,0.0973 -1.83716,0.12535 -2.79501,0.0828 -0.95783,-0.0427 -1.93924,-0.15626 -2.94015,-0.33629 -1.0009,-0.18002 -2.02132,-0.42747 -3.0541,-0.74238 -1.03277,-0.31491 -2.07783,-0.69569 -3.13127,-1.143 -1.05344,-0.44731 -2.11611,-0.96085 -3.17905,-1.53806 -2.12586,-1.15443 -4.2596,-2.56558 -6.35627,-4.22465 -2.09665,-1.65906 -4.15599,-3.56567 -6.1339,-5.70943 -0.98898,-1.07187 -1.95725,-2.20472 -2.89974,-3.39405 -0.9425,-1.18931 -1.85872,-2.43526 -2.74355,-3.73952 -0.88483,-1.30426 -1.73827,-2.66645 -2.55426,-4.08315 -0.81599,-1.41671 -1.59598,-2.88909 -2.33191,-4.41575 -0.73595,-1.52667 -1.42811,-3.10873 -2.07281,-4.74286 -0.64472,-1.63412 -1.24205,-3.31982 -1.78432,-5.05891 -0.54227,-1.7391 -1.03041,-3.53158 -1.45906,-5.37315 -0.42866,-1.84156 -0.79687,-3.73297 -1.10072,-5.67452 -0.30385,-1.94155 -0.54331,-3.93317 -0.71116,-5.9722 -0.16785,-2.03904 -0.26417,-4.12667 -0.28481,-6.26071 -0.0126,-1.2978 0.0595,-2.64622 0.10472,-3.97841 -3.16784,-2.55467 -6.35659,-5.10739 -9.6621,-7.61318 -4.18451,-3.17214 -8.46138,-6.2977 -12.78235,-9.35157 -4.32098,-3.05383 -8.68722,-6.03797 -13.05066,-8.9289 -1.03627,-0.68656 -2.06095,-1.31246 -3.09635,-1.98828 -0.16318,0.74518 -0.40034,1.55424 -0.55311,2.28965 -0.70435,3.39046 -1.23632,6.83121 -1.62812,10.30343 -0.39181,3.47224 -0.64262,6.97786 -0.7865,10.49638 -0.14386,3.51853 -0.18095,7.05158 -0.14149,10.58092 0.0394,3.52934 0.15422,7.05419 0.31239,10.55886 0.31635,7.00933 0.80556,13.93483 1.20915,20.63259 0.20179,3.34887 0.38232,6.64097 0.50901,9.85874 0.12668,3.21775 0.20045,6.36287 0.18743,9.41403 -0.0129,3.05115 -0.11345,6.01001 -0.33077,8.85907 -0.21731,2.84907 -0.55202,5.58788 -1.03824,8.19938 -0.48624,2.6115 -1.12261,5.0965 -1.94235,7.43494 -0.40987,1.16923 -0.86549,2.30158 -1.37085,3.3959 -0.50536,1.09429 -1.06144,2.14939 -1.67038,3.16433 -0.60894,1.01496 -1.27137,1.99063 -1.99196,2.9218 -0.72058,0.93115 -1.49896,1.81788 -2.33926,2.66084 -0.8403,0.84294 -1.74238,1.64227 -2.71048,2.39255 -0.96808,0.7503 -2.00339,1.45271 -3.10737,2.1059 -1.10398,0.6532 -2.2766,1.25653 -3.52453,1.8082 -1.2479,0.55167 -2.57111,1.05193 -3.97106,1.49765 -0.40632,0.12937 -0.86857,0.21976 -1.28814,0.33995 -1.02602,0.29393 -2.04239,0.59444 -3.14967,0.83244 -1.56006,0.3353 -3.20203,0.6138 -4.93028,0.83426 -0.91011,-0.26592 -1.76893,-0.75798 -2.57631,-1.46089 -0.80738,-0.7029 -1.56342,-1.61583 -2.26575,-2.72148 -0.70236,-1.10565 -1.351,-2.40501 -1.94603,-3.87918 -0.59505,-1.47418 -1.13714,-3.12367 -1.62261,-4.93212 -0.48545,-1.80845 -0.91456,-3.77553 -1.28815,-5.88402 -0.37361,-2.10848 -0.69058,-4.35867 -0.95004,-6.73296 -0.25946,-2.3743 -0.46154,-4.87317 -0.60458,-7.47905 -0.14302,-2.60585 -0.22743,-5.319 -0.25175,-8.12218 -0.0243,-2.8032 0.0117,-5.698 0.10843,-8.66429 0.0966,-2.9663 0.25416,-6.00467 0.47409,-9.09981 0.21993,-3.09515 0.50165,-6.24632 0.84714,-9.43609 0.34548,-3.18977 0.75423,-6.41929 1.2275,-9.66946 0.47332,-3.25015 1.01186,-6.52177 1.61527,-9.79809 0.6034,-3.27631 1.27086,-6.55744 2.00666,-9.82565 0.73579,-3.26822 1.53863,-6.52442 2.40909,-9.75031 0.87047,-3.22591 1.80963,-6.42273 2.81704,-9.57207 3.2635,-10.20218 6.09567,-19.64018 8.93075,-29.11314 0.98203,-3.28135 2.16523,-6.87402 3.09268,-10.08475 0.11877,-0.41114 0.2166,-0.80091 0.33445,-1.21099 1.67078,-5.81351 3.26953,-11.54023 4.75204,-17.16502 1.58708,-6.02156 3.06347,-11.95044 4.4231,-17.81739 0.0434,-0.18725 0.0763,-0.36968 0.11945,-0.5568 0.83584,-3.62424 1.55563,-7.20104 2.30067,-10.78673 0.42178,-2.02983 0.9109,-4.08508 1.30286,-6.10635 1.12008,-5.77606 2.11765,-11.52257 2.98611,-17.27162 0.86845,-5.74902 1.60771,-11.50053 2.21247,-17.2863 0.60477,-5.78578 1.07495,-11.60766 1.40393,-17.49397 0.20052,-3.58786 0.29447,-7.2717 0.28667,-11.0293 -0.007,-3.75758 -0.11728,-7.58874 -0.32342,-11.47397 -0.20615,-3.88524 -0.50963,-7.82479 -0.9041,-11.79557 -0.39447,-3.97078 -0.88077,-7.9743 -1.45355,-11.98851 -0.57278,-4.01423 -1.23064,-8.03911 -1.97175,-12.05468 -0.74111,-4.01556 -1.5648,-8.02289 -2.46422,-11.9977 -0.89941,-3.97479 -1.8759,-7.91833 -2.92363,-11.81026 -1.04771,-3.89196 -2.1676,-7.73271 -3.35362,-11.49971 -1.93176,-6.13559 -5.08217,-14.66425 -8.21407,-23.958659 -1.56595,-4.647196 -3.1283,-9.485862 -4.52969,-14.313075 -1.4014,-4.82721 -2.64336,-9.644331 -3.57047,-14.245088 -0.46355,-2.300378 -0.8469,-4.547044 -1.13378,-6.714594 -0.28692,-2.167553 -0.47608,-4.256578 -0.54762,-6.240497 -0.0715,-1.983919 -0.0264,-3.86256 0.1562,-5.612035 0.18254,-1.749477 0.50225,-3.370505 0.9776,-4.83473 0.23768,-0.732115 0.51431,-1.425217 0.83245,-2.076491 0.31812,-0.651274 0.67706,-1.260655 1.08051,-1.824738 0.40341,-0.564085 0.85153,-1.082231 1.3451,-1.552773 0.49358,-0.470544 1.03223,-0.893619 1.62078,-1.26427 0.58855,-0.370651 1.2264,-0.689308 1.91478,-0.953716 0.68835,-0.264407 1.42864,-0.474808 2.22165,-0.626622 0.79302,-0.151814 1.63889,-0.244609 2.54142,-0.277478 z m -89.68599,14.506028 c 0.39191,-9.3e-5 0.78175,0.0098 1.17054,0.02941 0.3388,0.01711 0.66884,0.0875 1.00517,0.119444 0.69287,0.06581 1.38868,0.116869 2.07097,0.244401 1.01349,0.189437 2.01476,0.445359 3.00449,0.76628 0.98971,0.32092 1.96734,0.705411 2.9328,1.152176 0.96548,0.446764 1.91858,0.956401 2.85932,1.523372 1.88148,1.13394 3.71298,2.502225 5.49259,4.083151 1.77961,1.580925 3.50818,3.373812 5.18204,5.356609 1.67384,1.982797 3.29443,4.156364 4.85861,6.495922 1.56418,2.339557 3.07171,4.846211 4.52234,7.497415 1.45062,2.651204 2.84373,5.447025 4.17687,8.364762 1.33315,2.917737 2.60675,5.958811 3.81853,9.097965 1.21179,3.139151 2.36266,6.377901 3.44918,9.693361 1.08652,3.31544 2.10961,6.70792 3.06695,10.15458 0.95737,3.44666 1.84944,6.94711 2.67372,10.47985 0.82428,3.53273 1.58029,7.09724 2.26761,10.67095 0.6873,3.57371 1.30585,7.15835 1.85229,10.7279 0.54644,3.56956 1.02063,7.12493 1.42231,10.64522 0.40167,3.52031 0.73012,7.00615 0.98312,10.43208 0.25376,3.43619 0.45282,6.87082 0.59539,10.3016 0.14254,3.43078 0.23005,6.85747 0.25726,10.27588 0.0272,3.41836 -0.005,6.82912 -0.0974,10.22806 -0.0923,3.39898 -0.24534,6.78758 -0.46124,10.16012 -0.21589,3.37252 -0.4943,6.73097 -0.83794,10.07004 -0.34365,3.3391 -0.75201,6.65934 -1.22753,9.95796 -0.47552,3.29866 -1.01842,6.57632 -1.62995,9.82751 -0.59445,3.1604 -1.25961,6.29398 -1.98645,9.40301 -0.0209,0.0893 -0.036,0.18085 -0.057,0.27011 -0.75167,3.19677 -1.5756,6.36512 -2.47156,9.50041 -0.0761,0.26632 -0.17091,0.5243 -0.24808,0.79017 -0.83124,2.86386 -1.70519,5.70917 -2.66085,8.51543 -1.04437,3.0668 -2.16406,6.09751 -3.36098,9.0888 -1.19691,2.99126 -2.4723,5.94297 -3.82589,8.85172 -1.33945,2.87842 -2.75896,5.71364 -4.25588,8.50442 -0.0158,0.0295 -0.0283,0.0607 -0.0441,0.09 -1.51438,2.81923 -3.1113,5.59246 -4.79062,8.31515 -0.32079,0.52008 -0.68379,1.0143 -1.01068,1.53073 -1.38442,2.18703 -2.78448,4.36422 -4.27978,6.48306 -1.8484,2.61913 -3.78155,5.18544 -5.80315,7.69404 -1.81622,2.25372 -3.79974,4.58231 -5.92627,6.95898 -2.1265,2.37669 -4.39734,4.80179 -6.78994,7.25119 -2.39258,2.4494 -4.90685,4.92264 -7.52129,7.39452 -2.61445,2.47185 -5.32828,4.94305 -8.12038,7.38714 -2.79206,2.4441 -5.66342,4.86122 -8.58894,7.2273 -2.92549,2.36609 -5.90686,4.68072 -8.92155,6.91857 -3.0147,2.23783 -6.06219,4.39982 -9.12187,6.45916 -3.05966,2.05936 -6.13123,4.01665 -9.19168,5.84724 -3.06043,1.83062 -6.11038,3.53488 -9.12736,5.08649 -3.01698,1.55164 -6.00144,2.95078 -8.93075,4.1732 -2.92929,1.22243 -5.8044,2.2681 -8.60182,3.11106 -2.7974,0.84296 -5.51744,1.48314 -8.138721,1.8964 -1.310647,0.20663 -2.596972,0.35675 -3.855288,0.44654 -1.258328,0.0897 -2.489433,0.11971 -3.689908,0.0863 -1.200478,-0.0334 -2.37088,-0.12943 -3.507983,-0.29219 -1.137101,-0.16274 -2.241321,-0.39251 -3.309521,-0.69094 -1.068199,-0.29842 -2.100751,-0.66584 -3.094521,-1.10624 -0.993769,-0.44038 -1.94917,-0.95309 -2.862983,-1.54174 -0.134366,-0.0866 -0.251489,-0.20418 -0.384058,-0.29402 -0.76904,-0.52113 -1.524301,-1.06771 -2.23085,-1.70162 -0.354153,-0.31774 -0.665522,-0.7098 -1.003329,-1.05662 -5.824483,-8.18968 -11.08227,-16.76927 -15.735384,-25.6768 C 54.479289,345.72761 50.055727,335.04876 46.489518,324.07386 42.9237,313.09844 40.225567,301.85857 38.420609,290.46044 37.981082,286.35736 37.6569,282.24226 37.448518,278.12095 l -0.02206,-0.29034 c 0.04922,-0.30149 0.02893,-0.64514 0.09372,-0.93716 0.27719,-1.24943 0.695261,-2.41287 1.247732,-3.49328 0.55247,-1.08042 1.238557,-2.07864 2.050765,-2.99714 0.812205,-0.9185 1.751456,-1.75755 2.807854,-2.52118 1.056398,-0.76364 2.230287,-1.45146 3.515332,-2.0673 1.285046,-0.61585 2.680558,-1.16035 4.178707,-1.63547 1.498149,-0.47512 3.098595,-0.88054 4.794302,-1.222 1.695709,-0.34148 3.486236,-0.6194 5.363959,-0.83429 1.877724,-0.21486 3.843483,-0.36772 5.887677,-0.46306 2.044193,-0.0954 4.168493,-0.13288 6.363614,-0.11577 4.390243,0.0342 9.066928,0.28605 13.967611,0.72769 4.900684,0.44165 10.025963,1.07443 15.312729,1.867 5.28677,0.79257 10.73448,1.74664 16.283,2.83358 5.5485,1.08694 11.198,2.30632 16.88387,3.6311 5.6859,1.32479 11.40917,2.75346 17.10807,4.25956 5.69891,1.5061 11.37349,3.08993 16.96108,4.72081 5.58758,1.63087 11.08911,3.31018 16.44101,5.00928 5.3519,1.69913 10.55608,3.41792 15.54795,5.12876 0.41559,0.14243 0.7763,0.28036 1.18893,0.42266 1.47192,-2.74997 2.8742,-5.5409 4.1934,-8.37581 1.35359,-2.90875 2.62714,-5.86042 3.82405,-8.85172 1.19693,-2.99128 2.31661,-6.02198 3.36098,-9.08878 1.04437,-3.06678 2.01297,-6.17032 2.90894,-9.30561 0.0808,-0.28262 0.14275,-0.57318 0.22233,-0.85632 -3.31976,-1.71211 -6.87471,-3.51427 -10.02227,-5.15447 -15.10915,-7.87341 -28.01487,-14.79009 -36.60686,-19.4988 -2.6826,-1.47015 -5.4522,-3.06546 -8.28024,-4.77776 -2.82805,-1.7123 -5.71575,-3.54176 -8.63123,-5.47421 -2.91545,-1.93246 -5.8591,-3.9684 -8.80393,-6.09901 -2.94485,-2.13061 -5.88962,-4.35637 -8.80579,-6.66314 -2.91618,-2.30678 -5.80358,-4.69467 -8.63306,-7.15563 -2.82946,-2.46094 -5.60287,-4.99432 -8.28758,-7.58745 -2.68472,-2.59314 -5.28194,-5.24798 -7.76387,-7.95131 -2.48193,-2.70332 -4.84815,-5.45563 -7.06926,-8.24715 -2.22109,-2.79152 -4.29784,-5.62097 -6.200064,-8.4787 -1.902221,-2.85773 -3.629161,-5.74398 -5.154467,-8.64591 -1.525307,-2.90194 -2.849468,-5.82099 -3.939818,-8.74513 -0.545175,-1.4621 -1.031665,-2.9247 -1.457218,-4.38821 -0.425552,-1.46351 -0.789184,-2.92784 -1.08786,-4.39002 -0.298677,-1.46221 -0.531907,-2.92272 -0.696451,-4.38086 -0.164545,-1.45812 -0.259833,-2.91483 -0.282992,-4.36614 -0.02315,-1.45131 0.02519,-2.89867 0.150685,-4.34041 0.125484,-1.44175 0.326863,-2.87791 0.608246,-4.30733 0.281382,-1.42942 0.643324,-2.8507 1.087859,-4.26508 0.386593,-1.23001 0.864926,-2.45118 1.380039,-3.66784 0.07721,-0.18237 0.127492,-0.36743 0.20765,-0.54947 0.614952,-1.39657 1.316948,-2.7843 2.109566,-4.16031 0.175716,-0.30505 0.403369,-0.60382 0.588033,-0.90778 2.543551,-3.14975 5.173736,-6.22914 7.886972,-9.23395 8.15985,-8.159969 16.9492,-15.666938 26.28506,-22.449981 9.33643,-6.783137 19.19251,-12.822756 29.47513,-18.061788 6.94371,-3.311954 14.05691,-6.258202 21.30883,-8.826001 0.1612,-0.01709 0.32631,-0.06162 0.48698,-0.07534 0.66222,-0.05654 1.32036,-0.08438 1.97358,-0.08452 z"
       style="fill:#6d28d9;fill-opacity:1;stroke:none;stroke-width:5"
       id="path12" />
    <circle
       style="fill:none;fill-opacity:1;stroke:#6d28d9;stroke-width:5;stroke-opacity:1"
       id="path13"
       cx="256"
       cy="256"
       r="252.7523" />
  </g>
</svg>
